<?xml version="1.0" encoding="utf-8"?>
<!-- Generator: Adobe Illustrator 19.2.1, SVG Export Plug-In . SVG Version: 6.00 Build 0)  -->
<!DOCTYPE svg PUBLIC "-//W3C//DTD SVG 1.1//EN" "http://www.w3.org/Graphics/SVG/1.1/DTD/svg11.dtd">
<svg version="1.1" id="Calque_1" xmlns="http://www.w3.org/2000/svg" xmlns:xlink="http://www.w3.org/1999/xlink" x="0px" y="0px"
	 viewBox="0 0 298.1 87.4" style="enable-background:new 0 0 298.1 87.4;" xml:space="preserve">
<style type="text/css">
	.st0{fill:#6A4C98;}
	.st1{opacity:0.5;enable-background:new    ;}
	.st2{opacity:0.7;enable-background:new    ;}
</style>
<g>
	<g>
		<path class="st0" d="M98.7,49.5c-1.6,0-3.1-0.3-4.4-1c-1.4-0.7-2.5-1.6-3.5-2.8c-1-1.2-1.7-2.7-2.3-4.4c-0.5-1.7-0.8-3.6-0.8-5.8
			c0-2.1,0.3-4,0.8-5.7c0.5-1.7,1.3-3.2,2.3-4.4c1-1.2,2.1-2.1,3.5-2.8c1.4-0.6,2.8-1,4.4-1c1.6,0,3.1,0.3,4.5,1
			c1.4,0.6,2.5,1.6,3.5,2.8c1,1.2,1.7,2.7,2.3,4.4c0.5,1.7,0.8,3.6,0.8,5.7c0,2.1-0.3,4-0.8,5.8c-0.5,1.7-1.3,3.2-2.3,4.4
			c-1,1.2-2.1,2.2-3.5,2.8C101.8,49.1,100.3,49.5,98.7,49.5z M98.7,47.8c1.4,0,2.6-0.3,3.7-0.9c1.1-0.6,2.1-1.4,2.9-2.5
			c0.8-1.1,1.4-2.4,1.9-3.9c0.4-1.5,0.7-3.2,0.7-5.1c0-1.8-0.2-3.5-0.7-5c-0.4-1.5-1.1-2.8-1.9-3.8c-0.8-1-1.8-1.9-2.9-2.4
			c-1.1-0.6-2.3-0.9-3.7-0.9c-1.4,0-2.6,0.3-3.7,0.9c-1.1,0.6-2.1,1.4-2.9,2.4c-0.8,1-1.4,2.3-1.8,3.8c-0.4,1.5-0.7,3.2-0.7,5
			c0,1.9,0.2,3.6,0.7,5.1c0.4,1.5,1,2.8,1.8,3.9c0.8,1.1,1.7,1.9,2.9,2.5C96.1,47.5,97.3,47.8,98.7,47.8z"/>
		<path class="st0" d="M115.9,22.1h7.3c1.5,0,2.8,0.1,4,0.4c1.2,0.3,2.2,0.7,3,1.3c0.8,0.6,1.5,1.4,1.9,2.3c0.4,1,0.7,2.1,0.7,3.5
			c0,2.6-0.8,4.6-2.5,5.9c-1.7,1.3-4,1.9-7,1.9h-5.5V49h-1.9V22.1z M122.8,35.9c2.7,0,4.8-0.5,6.1-1.5c1.3-1,2-2.6,2-4.8
			c0-1.1-0.2-2.1-0.5-2.8c-0.3-0.7-0.8-1.4-1.5-1.8c-0.7-0.5-1.5-0.8-2.5-1c-1-0.2-2.2-0.3-3.6-0.3h-5v12.1H122.8z"/>
		<path class="st0" d="M138.7,22.1h14.7v1.6h-12.8v10.1h10.8v1.6h-10.8v11.8h13.2V49h-15.1V22.1z"/>
		<path class="st0" d="M159.6,22.1h2l11.3,18.9l3,5.3h0.2c-0.1-1.3-0.1-2.6-0.2-3.9c-0.1-1.3-0.1-2.6-0.1-3.9V22.1h1.8V49h-2
			L164.4,30l-3-5.3h-0.2c0.1,1.3,0.1,2.6,0.2,3.8c0.1,1.2,0.1,2.5,0.1,3.8V49h-1.8V22.1z"/>
		<path class="st0" d="M184.7,22.4h7.5c2,0,3.9,0.3,5.5,0.8c1.6,0.5,3,1.3,4.2,2.4c1.2,1.1,2.1,2.4,2.7,4.1c0.6,1.7,0.9,3.6,0.9,5.9
			c0,2.3-0.3,4.3-0.9,5.9c-0.6,1.7-1.5,3.1-2.6,4.2c-1.1,1.1-2.5,1.9-4.1,2.5c-1.6,0.5-3.4,0.8-5.3,0.8h-7.8V22.4z M191.9,44.1
			c1.1,0,2.2-0.1,3.1-0.4c0.9-0.3,1.7-0.8,2.4-1.4c0.7-0.7,1.2-1.5,1.5-2.6c0.4-1.1,0.5-2.4,0.5-4c0-1.6-0.2-2.9-0.5-4
			c-0.4-1.1-0.9-1.9-1.5-2.6c-0.7-0.6-1.4-1.1-2.4-1.4c-0.9-0.3-2-0.4-3.1-0.4h-1.1v16.9H191.9z"/>
		<path class="st0" d="M222.7,42.7h-8.1l-1.6,6.3h-6.1l8.3-26.6h7.2l8.3,26.6h-6.4L222.7,42.7z M221.4,38l-0.6-2.4
			c-0.4-1.3-0.7-2.7-1.1-4.2c-0.4-1.5-0.7-2.9-1.1-4.3h-0.2c-0.3,1.4-0.7,2.9-1,4.3c-0.3,1.5-0.7,2.9-1.1,4.2l-0.7,2.4H221.4z"/>
		<path class="st0" d="M237.1,27.5h-7.3v-5.1h20.6v5.1h-7.3V49h-6V27.5z"/>
		<path class="st0" d="M265.4,42.7h-8.1l-1.6,6.3h-6.1l8.3-26.6h7.2l8.3,26.6H267L265.4,42.7z M264.2,38l-0.6-2.4
			c-0.4-1.3-0.7-2.7-1.1-4.2c-0.4-1.5-0.7-2.9-1.1-4.3h-0.2c-0.3,1.4-0.7,2.9-1,4.3c-0.3,1.5-0.7,2.9-1.1,4.2l-0.7,2.4H264.2z"/>
	</g>
	<g>
		<path class="st0" d="M89.6,57.4h0.8l1.8,5l0.7,1.9h0.1l0.6-1.9l1.8-5h0.8v8.5h-0.6v-5.6c0-0.4,0-0.7,0-1.1c0-0.4,0-0.8,0.1-1.1
			h-0.1L95,59.9l-1.8,5.1h-0.5l-1.8-5.1L90.1,58h-0.1c0,0.4,0,0.7,0.1,1.1c0,0.4,0,0.8,0,1.1v5.6h-0.6V57.4z"/>
		<path class="st0" d="M98.1,62.8c0-0.5,0.1-1,0.2-1.4c0.1-0.4,0.4-0.7,0.6-1c0.3-0.3,0.5-0.5,0.9-0.6c0.3-0.1,0.7-0.2,1.1-0.2
			c0.4,0,0.7,0.1,1.1,0.2c0.3,0.1,0.6,0.4,0.9,0.6c0.3,0.3,0.5,0.6,0.6,1c0.1,0.4,0.2,0.9,0.2,1.4c0,0.5-0.1,1-0.2,1.4
			c-0.1,0.4-0.4,0.7-0.6,1c-0.3,0.3-0.5,0.5-0.9,0.6c-0.3,0.1-0.7,0.2-1.1,0.2c-0.4,0-0.7-0.1-1.1-0.2s-0.6-0.4-0.9-0.6
			c-0.3-0.3-0.5-0.6-0.6-1C98.2,63.8,98.1,63.3,98.1,62.8z M98.7,62.8c0,0.4,0.1,0.8,0.2,1.1c0.1,0.3,0.3,0.6,0.5,0.9
			c0.2,0.2,0.4,0.4,0.7,0.6c0.3,0.1,0.6,0.2,0.9,0.2s0.6-0.1,0.9-0.2c0.3-0.1,0.5-0.3,0.7-0.6c0.2-0.2,0.3-0.5,0.5-0.9
			c0.1-0.3,0.2-0.7,0.2-1.1c0-0.4-0.1-0.8-0.2-1.1c-0.1-0.3-0.3-0.6-0.5-0.9c-0.2-0.2-0.4-0.4-0.7-0.6c-0.3-0.1-0.6-0.2-0.9-0.2
			s-0.6,0.1-0.9,0.2c-0.3,0.1-0.5,0.3-0.7,0.6c-0.2,0.2-0.3,0.5-0.5,0.9C98.7,62,98.7,62.4,98.7,62.8z"/>
		<path class="st0" d="M105.5,59.7h0.5l0.1,0.9h0c0.3-0.3,0.6-0.6,1-0.8c0.3-0.2,0.7-0.3,1.1-0.3c0.6,0,1.1,0.2,1.4,0.6
			c0.3,0.4,0.4,1,0.4,1.8v4h-0.6V62c0-0.7-0.1-1.1-0.3-1.5c-0.2-0.3-0.6-0.5-1.1-0.5c-0.4,0-0.7,0.1-1,0.3c-0.3,0.2-0.6,0.5-1,0.9
			v4.6h-0.6V59.7z"/>
		<path class="st0" d="M112.5,60.2h-1v-0.4l1-0.1l0.1-1.8h0.5v1.8h1.8v0.5H113v4c0,0.2,0,0.4,0,0.5c0,0.2,0.1,0.3,0.2,0.4
			c0.1,0.1,0.2,0.2,0.3,0.3c0.1,0.1,0.3,0.1,0.5,0.1c0.1,0,0.3,0,0.4-0.1c0.1,0,0.3-0.1,0.4-0.1l0.2,0.5c-0.2,0.1-0.4,0.1-0.5,0.2
			c-0.2,0-0.3,0.1-0.5,0.1c-0.3,0-0.5,0-0.7-0.1c-0.2-0.1-0.4-0.2-0.5-0.4c-0.1-0.2-0.2-0.4-0.3-0.6c0-0.2-0.1-0.5-0.1-0.8V60.2z"/>
		<path class="st0" d="M116.9,66.4v2.2h-0.6v-8.9h0.5l0.1,0.8h0c0.3-0.2,0.6-0.5,1-0.6c0.4-0.2,0.7-0.3,1.1-0.3
			c0.8,0,1.4,0.3,1.8,0.9c0.4,0.6,0.6,1.3,0.6,2.3c0,0.5-0.1,1-0.2,1.4c-0.1,0.4-0.3,0.8-0.6,1c-0.3,0.3-0.5,0.5-0.9,0.7
			c-0.3,0.1-0.7,0.2-1,0.2c-0.3,0-0.6-0.1-0.9-0.2s-0.6-0.3-0.9-0.6V66.4z M116.9,64.7c0.4,0.3,0.7,0.5,1,0.6
			c0.3,0.1,0.6,0.2,0.8,0.2c0.3,0,0.6-0.1,0.9-0.2s0.5-0.3,0.7-0.6c0.2-0.2,0.3-0.5,0.4-0.9c0.1-0.3,0.2-0.7,0.2-1.1
			c0-0.4,0-0.7-0.1-1.1c-0.1-0.3-0.2-0.6-0.3-0.8c-0.2-0.2-0.4-0.4-0.6-0.6c-0.2-0.1-0.5-0.2-0.9-0.2c-0.3,0-0.6,0.1-1,0.3
			c-0.3,0.2-0.7,0.4-1.1,0.8V64.7z"/>
		<path class="st0" d="M122.8,62.8c0-0.5,0.1-1,0.2-1.4c0.1-0.4,0.4-0.7,0.6-1c0.3-0.3,0.5-0.5,0.9-0.6c0.3-0.1,0.7-0.2,1-0.2
			c0.7,0,1.3,0.2,1.7,0.7c0.4,0.5,0.6,1.2,0.6,2.1c0,0.1,0,0.2,0,0.2c0,0.1,0,0.2,0,0.2h-4.4c0,0.4,0.1,0.7,0.2,1.1
			c0.1,0.3,0.3,0.6,0.5,0.8c0.2,0.2,0.4,0.4,0.7,0.6c0.3,0.1,0.6,0.2,1,0.2c0.3,0,0.6,0,0.9-0.1c0.3-0.1,0.5-0.2,0.8-0.4l0.2,0.4
			c-0.2,0.1-0.5,0.3-0.8,0.4c-0.3,0.1-0.7,0.2-1.1,0.2c-0.4,0-0.8-0.1-1.1-0.2c-0.3-0.1-0.6-0.4-0.9-0.6c-0.3-0.3-0.5-0.6-0.6-1
			C122.9,63.7,122.8,63.3,122.8,62.8z M127.3,62.4c0-0.8-0.2-1.4-0.5-1.8c-0.3-0.4-0.8-0.6-1.3-0.6c-0.3,0-0.5,0.1-0.8,0.2
			c-0.2,0.1-0.5,0.3-0.6,0.5c-0.2,0.2-0.4,0.5-0.5,0.8c-0.1,0.3-0.2,0.6-0.2,1H127.3z"/>
		<path class="st0" d="M129.5,56.6h0.6v8.5c0,0.1,0,0.2,0.1,0.3c0.1,0.1,0.1,0.1,0.2,0.1c0,0,0.1,0,0.1,0c0,0,0.1,0,0.1,0l0.1,0.5
			c-0.1,0-0.1,0-0.2,0c-0.1,0-0.1,0-0.2,0c-0.5,0-0.8-0.3-0.8-1V56.6z"/>
		<path class="st0" d="M132.5,56.6h0.6v8.5c0,0.1,0,0.2,0.1,0.3c0.1,0.1,0.1,0.1,0.2,0.1c0,0,0.1,0,0.1,0c0,0,0.1,0,0.1,0l0.1,0.5
			c-0.1,0-0.1,0-0.2,0c-0.1,0-0.1,0-0.2,0c-0.5,0-0.8-0.3-0.8-1V56.6z"/>
		<path class="st0" d="M135.9,58.2c-0.1,0-0.3,0-0.4-0.1c-0.1-0.1-0.1-0.2-0.1-0.4c0-0.2,0-0.3,0.1-0.4c0.1-0.1,0.2-0.1,0.4-0.1
			c0.1,0,0.3,0,0.4,0.1c0.1,0.1,0.1,0.2,0.1,0.4c0,0.1,0,0.3-0.1,0.4C136.2,58.2,136,58.2,135.9,58.2z M135.6,59.7h0.6v6.2h-0.6
			V59.7z"/>
		<path class="st0" d="M138,62.8c0-0.5,0.1-1,0.2-1.4c0.1-0.4,0.4-0.7,0.6-1c0.3-0.3,0.5-0.5,0.9-0.6c0.3-0.1,0.7-0.2,1-0.2
			c0.7,0,1.3,0.2,1.7,0.7c0.4,0.5,0.6,1.2,0.6,2.1c0,0.1,0,0.2,0,0.2c0,0.1,0,0.2,0,0.2h-4.4c0,0.4,0.1,0.7,0.2,1.1
			c0.1,0.3,0.3,0.6,0.5,0.8c0.2,0.2,0.4,0.4,0.7,0.6c0.3,0.1,0.6,0.2,1,0.2c0.3,0,0.6,0,0.9-0.1c0.3-0.1,0.5-0.2,0.8-0.4l0.2,0.4
			c-0.2,0.1-0.5,0.3-0.8,0.4c-0.3,0.1-0.7,0.2-1.1,0.2c-0.4,0-0.8-0.1-1.1-0.2c-0.3-0.1-0.6-0.4-0.9-0.6c-0.3-0.3-0.5-0.6-0.6-1
			C138.1,63.7,138,63.3,138,62.8z M142.5,62.4c0-0.8-0.2-1.4-0.5-1.8c-0.3-0.4-0.8-0.6-1.3-0.6c-0.3,0-0.5,0.1-0.8,0.2
			c-0.2,0.1-0.5,0.3-0.6,0.5c-0.2,0.2-0.4,0.5-0.5,0.8c-0.1,0.3-0.2,0.6-0.2,1H142.5z"/>
		<path class="st0" d="M144.7,59.7h0.5l0.1,1.1h0c0.2-0.4,0.5-0.7,0.8-0.9c0.3-0.2,0.6-0.4,1-0.4c0.1,0,0.2,0,0.3,0
			c0.1,0,0.2,0.1,0.3,0.1l-0.1,0.5c-0.1,0-0.2-0.1-0.3-0.1c-0.1,0-0.2,0-0.3,0c-0.3,0-0.6,0.1-0.9,0.4c-0.3,0.2-0.6,0.6-0.8,1.2v4.2
			h-0.6V59.7z"/>
		<path class="st0" d="M151.4,57.4h0.8l1.8,5l0.7,1.9h0.1l0.6-1.9l1.8-5h0.8v8.5h-0.6v-5.6c0-0.4,0-0.7,0-1.1c0-0.4,0-0.8,0.1-1.1
			h-0.1l-0.7,1.9l-1.8,5.1h-0.5l-1.8-5.1l-0.7-1.9h-0.1c0,0.4,0,0.7,0.1,1.1c0,0.4,0,0.8,0,1.1v5.6h-0.6V57.4z"/>
		<path class="st0" d="M159.9,62.8c0-0.5,0.1-1,0.2-1.4c0.1-0.4,0.4-0.7,0.6-1c0.3-0.3,0.5-0.5,0.9-0.6c0.3-0.1,0.7-0.2,1-0.2
			c0.7,0,1.3,0.2,1.7,0.7c0.4,0.5,0.6,1.2,0.6,2.1c0,0.1,0,0.2,0,0.2c0,0.1,0,0.2,0,0.2h-4.4c0,0.4,0.1,0.7,0.2,1.1
			c0.1,0.3,0.3,0.6,0.5,0.8c0.2,0.2,0.4,0.4,0.7,0.6c0.3,0.1,0.6,0.2,1,0.2c0.3,0,0.6,0,0.9-0.1c0.3-0.1,0.5-0.2,0.8-0.4l0.2,0.4
			c-0.2,0.1-0.5,0.3-0.8,0.4c-0.3,0.1-0.7,0.2-1.1,0.2c-0.4,0-0.8-0.1-1.1-0.2c-0.3-0.1-0.6-0.4-0.9-0.6c-0.3-0.3-0.5-0.6-0.6-1
			C160,63.7,159.9,63.3,159.9,62.8z M164.4,62.4c0-0.8-0.2-1.4-0.5-1.8c-0.3-0.4-0.8-0.6-1.3-0.6c-0.3,0-0.5,0.1-0.8,0.2
			c-0.2,0.1-0.5,0.3-0.6,0.5c-0.2,0.2-0.4,0.5-0.5,0.8c-0.1,0.3-0.2,0.6-0.2,1H164.4z M162.4,58.5h-0.5l1.2-1.7h0.7L162.4,58.5z"/>
		<path class="st0" d="M166.1,62.8c0-0.5,0.1-0.9,0.2-1.3c0.1-0.4,0.3-0.7,0.6-1c0.3-0.3,0.5-0.5,0.9-0.6c0.3-0.1,0.7-0.2,1-0.2
			c0.4,0,0.7,0.1,1,0.2c0.3,0.1,0.6,0.3,0.9,0.6l0-1.1v-2.5h0.6v9.2h-0.5l-0.1-0.8h0c-0.2,0.2-0.5,0.5-0.9,0.7
			c-0.3,0.2-0.7,0.3-1.1,0.3c-0.8,0-1.4-0.3-1.9-0.8C166.3,64.6,166.1,63.8,166.1,62.8z M166.7,62.8c0,0.4,0,0.8,0.1,1.1
			c0.1,0.3,0.2,0.6,0.4,0.9c0.2,0.2,0.4,0.4,0.6,0.6c0.3,0.1,0.5,0.2,0.9,0.2c0.3,0,0.7-0.1,1-0.3c0.3-0.2,0.6-0.4,1-0.8v-3.7
			c-0.3-0.3-0.6-0.5-0.9-0.6c-0.3-0.1-0.6-0.2-0.9-0.2c-0.3,0-0.6,0.1-0.9,0.2c-0.3,0.1-0.5,0.3-0.7,0.6c-0.2,0.2-0.3,0.5-0.5,0.9
			C166.8,62,166.7,62.4,166.7,62.8z"/>
		<path class="st0" d="M173.9,58.2c-0.1,0-0.3,0-0.4-0.1c-0.1-0.1-0.1-0.2-0.1-0.4c0-0.2,0-0.3,0.1-0.4c0.1-0.1,0.2-0.1,0.4-0.1
			c0.1,0,0.3,0,0.4,0.1c0.1,0.1,0.1,0.2,0.1,0.4c0,0.1,0,0.3-0.1,0.4C174.2,58.2,174,58.2,173.9,58.2z M173.6,59.7h0.6v6.2h-0.6
			V59.7z"/>
		<path class="st0" d="M176.7,60.2h-1v-0.4l1-0.1l0.1-1.8h0.5v1.8h1.8v0.5h-1.8v4c0,0.2,0,0.4,0,0.5c0,0.2,0.1,0.3,0.2,0.4
			c0.1,0.1,0.2,0.2,0.3,0.3c0.1,0.1,0.3,0.1,0.5,0.1c0.1,0,0.3,0,0.4-0.1c0.1,0,0.3-0.1,0.4-0.1l0.2,0.5c-0.2,0.1-0.4,0.1-0.5,0.2
			c-0.2,0-0.3,0.1-0.5,0.1c-0.3,0-0.5,0-0.7-0.1c-0.2-0.1-0.4-0.2-0.5-0.4c-0.1-0.2-0.2-0.4-0.3-0.6c0-0.2-0.1-0.5-0.1-0.8V60.2z"/>
		<path class="st0" d="M179.9,62.8c0-0.5,0.1-1,0.2-1.4c0.1-0.4,0.4-0.7,0.6-1c0.3-0.3,0.5-0.5,0.9-0.6c0.3-0.1,0.7-0.2,1-0.2
			c0.7,0,1.3,0.2,1.7,0.7c0.4,0.5,0.6,1.2,0.6,2.1c0,0.1,0,0.2,0,0.2c0,0.1,0,0.2,0,0.2h-4.4c0,0.4,0.1,0.7,0.2,1.1
			c0.1,0.3,0.3,0.6,0.5,0.8c0.2,0.2,0.4,0.4,0.7,0.6c0.3,0.1,0.6,0.2,1,0.2c0.3,0,0.6,0,0.9-0.1c0.3-0.1,0.5-0.2,0.8-0.4l0.2,0.4
			c-0.2,0.1-0.5,0.3-0.8,0.4c-0.3,0.1-0.7,0.2-1.1,0.2c-0.4,0-0.8-0.1-1.1-0.2c-0.3-0.1-0.6-0.4-0.9-0.6c-0.3-0.3-0.5-0.6-0.6-1
			C180,63.7,179.9,63.3,179.9,62.8z M184.4,62.4c0-0.8-0.2-1.4-0.5-1.8c-0.3-0.4-0.8-0.6-1.3-0.6c-0.3,0-0.5,0.1-0.8,0.2
			c-0.2,0.1-0.5,0.3-0.6,0.5c-0.2,0.2-0.4,0.5-0.5,0.8c-0.1,0.3-0.2,0.6-0.2,1H184.4z"/>
		<path class="st0" d="M186.6,59.7h0.5l0.1,1.1h0c0.2-0.4,0.5-0.7,0.8-0.9c0.3-0.2,0.6-0.4,1-0.4c0.1,0,0.2,0,0.3,0
			c0.1,0,0.2,0.1,0.3,0.1l-0.1,0.5c-0.1,0-0.2-0.1-0.3-0.1c-0.1,0-0.2,0-0.3,0c-0.3,0-0.6,0.1-0.9,0.4c-0.3,0.2-0.6,0.6-0.8,1.2v4.2
			h-0.6V59.7z"/>
		<path class="st0" d="M190.7,59.7h0.5l0.1,1.1h0c0.2-0.4,0.5-0.7,0.8-0.9c0.3-0.2,0.6-0.4,1-0.4c0.1,0,0.2,0,0.3,0
			c0.1,0,0.2,0.1,0.3,0.1l-0.1,0.5c-0.1,0-0.2-0.1-0.3-0.1c-0.1,0-0.2,0-0.3,0c-0.3,0-0.6,0.1-0.9,0.4c-0.3,0.2-0.6,0.6-0.8,1.2v4.2
			h-0.6V59.7z"/>
		<path class="st0" d="M194.1,64.3c0-0.7,0.3-1.2,1-1.6c0.6-0.4,1.6-0.6,3-0.8c0-0.2,0-0.5,0-0.7c0-0.2-0.1-0.4-0.2-0.6
			c-0.1-0.2-0.3-0.3-0.4-0.4c-0.2-0.1-0.4-0.2-0.7-0.2c-0.4,0-0.8,0.1-1.1,0.2c-0.3,0.2-0.6,0.3-0.8,0.5l-0.3-0.4
			c0.1-0.1,0.2-0.2,0.4-0.3c0.2-0.1,0.3-0.2,0.5-0.3c0.2-0.1,0.4-0.1,0.6-0.2c0.2-0.1,0.5-0.1,0.7-0.1c0.4,0,0.7,0.1,0.9,0.2
			c0.2,0.1,0.4,0.3,0.6,0.5c0.2,0.2,0.3,0.5,0.3,0.8c0.1,0.3,0.1,0.6,0.1,0.9v3.9h-0.5l-0.1-0.8h0c-0.3,0.2-0.7,0.5-1,0.7
			c-0.4,0.2-0.8,0.3-1.2,0.3c-0.2,0-0.5,0-0.7-0.1c-0.2-0.1-0.4-0.2-0.6-0.3c-0.2-0.1-0.3-0.3-0.4-0.5
			C194.2,64.9,194.1,64.6,194.1,64.3z M194.7,64.3c0,0.4,0.1,0.8,0.4,0.9c0.3,0.2,0.6,0.3,0.9,0.3c0.4,0,0.7-0.1,1-0.3
			c0.3-0.2,0.7-0.4,1.1-0.7v-2.1c-0.6,0.1-1.2,0.2-1.6,0.3c-0.4,0.1-0.8,0.2-1,0.4c-0.3,0.2-0.5,0.3-0.6,0.5
			C194.8,63.8,194.7,64.1,194.7,64.3z"/>
		<path class="st0" d="M200.9,59.7h0.5l0.1,0.9h0c0.3-0.3,0.6-0.6,1-0.8c0.3-0.2,0.7-0.3,1.1-0.3c0.6,0,1.1,0.2,1.4,0.6
			c0.3,0.4,0.4,1,0.4,1.8v4h-0.6V62c0-0.7-0.1-1.1-0.3-1.5c-0.2-0.3-0.6-0.5-1.1-0.5c-0.4,0-0.7,0.1-1,0.3c-0.3,0.2-0.6,0.5-1,0.9
			v4.6h-0.6V59.7z"/>
		<path class="st0" d="M207.2,62.8c0-0.5,0.1-1,0.2-1.4c0.1-0.4,0.4-0.7,0.6-1c0.3-0.3,0.5-0.5,0.9-0.6c0.3-0.1,0.7-0.2,1-0.2
			c0.7,0,1.3,0.2,1.7,0.7c0.4,0.5,0.6,1.2,0.6,2.1c0,0.1,0,0.2,0,0.2c0,0.1,0,0.2,0,0.2h-4.4c0,0.4,0.1,0.7,0.2,1.1
			c0.1,0.3,0.3,0.6,0.5,0.8c0.2,0.2,0.4,0.4,0.7,0.6c0.3,0.1,0.6,0.2,1,0.2c0.3,0,0.6,0,0.9-0.1c0.3-0.1,0.5-0.2,0.8-0.4l0.2,0.4
			c-0.2,0.1-0.5,0.3-0.8,0.4c-0.3,0.1-0.7,0.2-1.1,0.2c-0.4,0-0.8-0.1-1.1-0.2c-0.3-0.1-0.6-0.4-0.9-0.6c-0.3-0.3-0.5-0.6-0.6-1
			C207.3,63.7,207.2,63.3,207.2,62.8z M211.7,62.4c0-0.8-0.2-1.4-0.5-1.8c-0.3-0.4-0.8-0.6-1.3-0.6c-0.3,0-0.5,0.1-0.8,0.2
			c-0.2,0.1-0.5,0.3-0.6,0.5c-0.2,0.2-0.4,0.5-0.5,0.8c-0.1,0.3-0.2,0.6-0.2,1H211.7z M209.6,58.5h-0.5l1.2-1.7h0.7L209.6,58.5z"/>
		<path class="st0" d="M213.4,62.8c0-0.5,0.1-1,0.2-1.4c0.1-0.4,0.4-0.7,0.6-1c0.3-0.3,0.5-0.5,0.9-0.6c0.3-0.1,0.7-0.2,1-0.2
			c0.7,0,1.3,0.2,1.7,0.7c0.4,0.5,0.6,1.2,0.6,2.1c0,0.1,0,0.2,0,0.2c0,0.1,0,0.2,0,0.2H214c0,0.4,0.1,0.7,0.2,1.1
			c0.1,0.3,0.3,0.6,0.5,0.8c0.2,0.2,0.4,0.4,0.7,0.6c0.3,0.1,0.6,0.2,1,0.2c0.3,0,0.6,0,0.9-0.1c0.3-0.1,0.5-0.2,0.8-0.4l0.2,0.4
			c-0.2,0.1-0.5,0.3-0.8,0.4c-0.3,0.1-0.7,0.2-1.1,0.2c-0.4,0-0.8-0.1-1.1-0.2c-0.3-0.1-0.6-0.4-0.9-0.6c-0.3-0.3-0.5-0.6-0.6-1
			C213.5,63.7,213.4,63.3,213.4,62.8z M217.9,62.4c0-0.8-0.2-1.4-0.5-1.8c-0.3-0.4-0.8-0.6-1.3-0.6c-0.3,0-0.5,0.1-0.8,0.2
			c-0.2,0.1-0.5,0.3-0.6,0.5c-0.2,0.2-0.4,0.5-0.5,0.8c-0.1,0.3-0.2,0.6-0.2,1H217.9z"/>
		<path class="st0" d="M222.7,57.4h0.8l1.8,5l0.7,1.9h0.1l0.6-1.9l1.8-5h0.8v8.5h-0.6v-5.6c0-0.4,0-0.7,0-1.1c0-0.4,0-0.8,0.1-1.1
			h-0.1l-0.7,1.9l-1.8,5.1h-0.5l-1.8-5.1l-0.7-1.9h-0.1c0,0.4,0,0.7,0.1,1.1c0,0.4,0,0.8,0,1.1v5.6h-0.6V57.4z"/>
		<path class="st0" d="M231.2,62.8c0-0.5,0.1-1,0.2-1.4c0.1-0.4,0.4-0.7,0.6-1c0.3-0.3,0.5-0.5,0.9-0.6c0.3-0.1,0.7-0.2,1-0.2
			c0.7,0,1.3,0.2,1.7,0.7c0.4,0.5,0.6,1.2,0.6,2.1c0,0.1,0,0.2,0,0.2c0,0.1,0,0.2,0,0.2h-4.4c0,0.4,0.1,0.7,0.2,1.1
			c0.1,0.3,0.3,0.6,0.5,0.8c0.2,0.2,0.4,0.4,0.7,0.6c0.3,0.1,0.6,0.2,1,0.2c0.3,0,0.6,0,0.9-0.1c0.3-0.1,0.5-0.2,0.8-0.4l0.2,0.4
			c-0.2,0.1-0.5,0.3-0.8,0.4c-0.3,0.1-0.7,0.2-1.1,0.2c-0.4,0-0.8-0.1-1.1-0.2c-0.3-0.1-0.6-0.4-0.9-0.6c-0.3-0.3-0.5-0.6-0.6-1
			C231.3,63.7,231.2,63.3,231.2,62.8z M235.7,62.4c0-0.8-0.2-1.4-0.5-1.8c-0.3-0.4-0.8-0.6-1.3-0.6c-0.3,0-0.5,0.1-0.8,0.2
			c-0.2,0.1-0.5,0.3-0.6,0.5c-0.2,0.2-0.4,0.5-0.5,0.8c-0.1,0.3-0.2,0.6-0.2,1H235.7z M233.7,58.5h-0.5l1.2-1.7h0.7L233.7,58.5z"/>
		<path class="st0" d="M237.9,60.2h-1v-0.4l1-0.1l0.1-1.8h0.5v1.8h1.8v0.5h-1.8v4c0,0.2,0,0.4,0,0.5c0,0.2,0.1,0.3,0.2,0.4
			c0.1,0.1,0.2,0.2,0.3,0.3c0.1,0.1,0.3,0.1,0.5,0.1c0.1,0,0.3,0,0.4-0.1c0.1,0,0.3-0.1,0.4-0.1l0.2,0.5c-0.2,0.1-0.4,0.1-0.5,0.2
			c-0.2,0-0.3,0.1-0.5,0.1c-0.3,0-0.5,0-0.7-0.1c-0.2-0.1-0.4-0.2-0.5-0.4c-0.1-0.2-0.2-0.4-0.3-0.6c0-0.2-0.1-0.5-0.1-0.8V60.2z"/>
		<path class="st0" d="M241.8,59.7h0.5l0.1,1.1h0c0.2-0.4,0.5-0.7,0.8-0.9c0.3-0.2,0.6-0.4,1-0.4c0.1,0,0.2,0,0.3,0
			c0.1,0,0.2,0.1,0.3,0.1l-0.1,0.5c-0.1,0-0.2-0.1-0.3-0.1c-0.1,0-0.2,0-0.3,0c-0.3,0-0.6,0.1-0.9,0.4c-0.3,0.2-0.6,0.6-0.8,1.2v4.2
			h-0.6V59.7z"/>
		<path class="st0" d="M245.2,62.8c0-0.5,0.1-1,0.2-1.4c0.1-0.4,0.4-0.7,0.6-1c0.3-0.3,0.5-0.5,0.9-0.6c0.3-0.1,0.7-0.2,1.1-0.2
			c0.4,0,0.7,0.1,1.1,0.2c0.3,0.1,0.6,0.4,0.9,0.6c0.3,0.3,0.5,0.6,0.6,1c0.1,0.4,0.2,0.9,0.2,1.4c0,0.5-0.1,1-0.2,1.4
			c-0.1,0.4-0.4,0.7-0.6,1c-0.3,0.3-0.5,0.5-0.9,0.6c-0.3,0.1-0.7,0.2-1.1,0.2c-0.4,0-0.7-0.1-1.1-0.2c-0.3-0.1-0.6-0.4-0.9-0.6
			c-0.3-0.3-0.5-0.6-0.6-1C245.3,63.8,245.2,63.3,245.2,62.8z M245.8,62.8c0,0.4,0.1,0.8,0.2,1.1c0.1,0.3,0.3,0.6,0.5,0.9
			c0.2,0.2,0.4,0.4,0.7,0.6c0.3,0.1,0.6,0.2,0.9,0.2c0.3,0,0.6-0.1,0.9-0.2c0.3-0.1,0.5-0.3,0.7-0.6c0.2-0.2,0.3-0.5,0.5-0.9
			c0.1-0.3,0.2-0.7,0.2-1.1c0-0.4-0.1-0.8-0.2-1.1c-0.1-0.3-0.3-0.6-0.5-0.9c-0.2-0.2-0.4-0.4-0.7-0.6c-0.3-0.1-0.6-0.2-0.9-0.2
			c-0.3,0-0.6,0.1-0.9,0.2c-0.3,0.1-0.5,0.3-0.7,0.6c-0.2,0.2-0.3,0.5-0.5,0.9C245.9,62,245.8,62.4,245.8,62.8z"/>
		<path class="st0" d="M253.2,66.4v2.2h-0.6v-8.9h0.5l0.1,0.8h0c0.3-0.2,0.6-0.5,1-0.6c0.4-0.2,0.7-0.3,1.1-0.3
			c0.8,0,1.4,0.3,1.8,0.9c0.4,0.6,0.6,1.3,0.6,2.3c0,0.5-0.1,1-0.2,1.4c-0.1,0.4-0.3,0.8-0.6,1c-0.3,0.3-0.5,0.5-0.9,0.7
			c-0.3,0.1-0.7,0.2-1,0.2c-0.3,0-0.6-0.1-0.9-0.2c-0.3-0.1-0.6-0.3-0.9-0.6V66.4z M253.2,64.7c0.4,0.3,0.7,0.5,1,0.6
			c0.3,0.1,0.6,0.2,0.8,0.2c0.3,0,0.6-0.1,0.9-0.2c0.3-0.1,0.5-0.3,0.7-0.6c0.2-0.2,0.3-0.5,0.4-0.9c0.1-0.3,0.2-0.7,0.2-1.1
			c0-0.4,0-0.7-0.1-1.1c-0.1-0.3-0.2-0.6-0.3-0.8c-0.2-0.2-0.4-0.4-0.6-0.6c-0.2-0.1-0.5-0.2-0.9-0.2c-0.3,0-0.6,0.1-1,0.3
			c-0.3,0.2-0.7,0.4-1.1,0.8V64.7z"/>
		<path class="st0" d="M259.1,62.8c0-0.5,0.1-1,0.2-1.4c0.1-0.4,0.4-0.7,0.6-1c0.3-0.3,0.5-0.5,0.9-0.6c0.3-0.1,0.7-0.2,1.1-0.2
			s0.7,0.1,1.1,0.2c0.3,0.1,0.6,0.4,0.9,0.6c0.3,0.3,0.5,0.6,0.6,1c0.1,0.4,0.2,0.9,0.2,1.4c0,0.5-0.1,1-0.2,1.4
			c-0.1,0.4-0.4,0.7-0.6,1c-0.3,0.3-0.5,0.5-0.9,0.6c-0.3,0.1-0.7,0.2-1.1,0.2s-0.7-0.1-1.1-0.2c-0.3-0.1-0.6-0.4-0.9-0.6
			c-0.3-0.3-0.5-0.6-0.6-1C259.1,63.8,259.1,63.3,259.1,62.8z M259.7,62.8c0,0.4,0.1,0.8,0.2,1.1c0.1,0.3,0.3,0.6,0.5,0.9
			c0.2,0.2,0.4,0.4,0.7,0.6c0.3,0.1,0.6,0.2,0.9,0.2s0.6-0.1,0.9-0.2c0.3-0.1,0.5-0.3,0.7-0.6c0.2-0.2,0.3-0.5,0.5-0.9
			c0.1-0.3,0.2-0.7,0.2-1.1c0-0.4-0.1-0.8-0.2-1.1c-0.1-0.3-0.3-0.6-0.5-0.9c-0.2-0.2-0.4-0.4-0.7-0.6c-0.3-0.1-0.6-0.2-0.9-0.2
			s-0.6,0.1-0.9,0.2c-0.3,0.1-0.5,0.3-0.7,0.6c-0.2,0.2-0.3,0.5-0.5,0.9C259.7,62,259.7,62.4,259.7,62.8z"/>
		<path class="st0" d="M266.5,56.6h0.6v8.5c0,0.1,0,0.2,0.1,0.3c0.1,0.1,0.1,0.1,0.2,0.1c0,0,0.1,0,0.1,0c0,0,0.1,0,0.1,0l0.1,0.5
			c-0.1,0-0.1,0-0.2,0c-0.1,0-0.1,0-0.2,0c-0.5,0-0.8-0.3-0.8-1V56.6z"/>
		<path class="st0" d="M269,62.8c0-0.5,0.1-1,0.2-1.4c0.1-0.4,0.4-0.7,0.6-1c0.3-0.3,0.5-0.5,0.9-0.6c0.3-0.1,0.7-0.2,1-0.2
			c0.7,0,1.3,0.2,1.7,0.7c0.4,0.5,0.6,1.2,0.6,2.1c0,0.1,0,0.2,0,0.2c0,0.1,0,0.2,0,0.2h-4.4c0,0.4,0.1,0.7,0.2,1.1
			c0.1,0.3,0.3,0.6,0.5,0.8c0.2,0.2,0.4,0.4,0.7,0.6c0.3,0.1,0.6,0.2,1,0.2c0.3,0,0.6,0,0.9-0.1c0.3-0.1,0.5-0.2,0.8-0.4l0.2,0.4
			c-0.2,0.1-0.5,0.3-0.8,0.4c-0.3,0.1-0.7,0.2-1.1,0.2c-0.4,0-0.8-0.1-1.1-0.2c-0.3-0.1-0.6-0.4-0.9-0.6c-0.3-0.3-0.5-0.6-0.6-1
			C269.1,63.7,269,63.3,269,62.8z M273.5,62.4c0-0.8-0.2-1.4-0.5-1.8c-0.3-0.4-0.8-0.6-1.3-0.6c-0.3,0-0.5,0.1-0.8,0.2
			c-0.2,0.1-0.5,0.3-0.6,0.5c-0.2,0.2-0.4,0.5-0.5,0.8c-0.1,0.3-0.2,0.6-0.2,1H273.5z"/>
	</g>
	<g>
		<path class="st0" d="M40.3,48l-8.5-8.3c-0.1-0.1-0.1-0.1-0.1-0.3c0.1-0.2,0.2-0.2,0.2-0.2l12.8-1.9l5.7-11.6
			c0-0.1,0.1-0.2,0.2-0.2c0.2,0,0.2,0.1,0.3,0.2l5.2,10.6l5-7.1l-3.4-6.9c-1.4-2.7-4.1-4.4-7.1-4.4c-3.1,0-5.8,1.7-7.1,4.4l-3.9,8
			l-8.8,1.3c-3,0.4-5.5,2.5-6.4,5.4c-0.9,2.9-0.2,6,2,8.2l5.5,5.4L40.3,48z"/>
		<g class="st1">
			<g>
				<g>
					<path class="st0" d="M77.1,37c-0.4-1.1-0.9-2.1-1.6-2.9c-1.2-1.4-2.9-2.3-4.8-2.6l-7.8-1.1l-5,7l11.7,1.7c0.1,0,0.2,0,0.2,0.2
						c0.1,0.2,0,0.2-0.1,0.3l-1.1,1l-8.2,8l2.2,12.8c0,0.1,0,0.2,0,0.2c-0.1,0.1-0.2,0.1-0.2,0.1c0,0-0.1,0-0.1,0l-1.8-0.9l8.8,4.7
						c0.9-1.6,1.3-3.5,0.9-5.3l-1.5-8.8l6.4-6.2C77.3,43,78,39.9,77.1,37"/>
				</g>
			</g>
		</g>
		<g class="st2">
			<g>
				<g>
					<path class="st0" d="M60.4,60.8l-9.7-5.1l-11.5,6c0,0,0,0,0,0c-0.1,0-0.1,0-0.1,0c-0.1,0-0.2-0.1-0.2-0.1c0-0.1-0.1-0.1,0-0.2
						l2-11.5l-8.2,2.5l-1.3,7.7c-0.3,1.8,0,3.7,0.9,5.3c0.2,0.4,0.5,0.8,0.8,1.2c1.5,1.8,3.8,2.9,6.1,2.9c1.3,0,2.5-0.3,3.7-0.9
						l7.9-4.1l7.9,4.1c1.2,0.6,2.4,0.9,3.7,0.9c2.3,0,4.6-1,6.1-2.9c0.3-0.4,0.6-0.7,0.8-1.1L60.4,60.8z"/>
				</g>
			</g>
		</g>
	</g>
</g>
</svg>
